<svg id="Capa_1" data-name="Capa 1" xmlns="http://www.w3.org/2000/svg" viewBox="0 0 42 48"><defs><style>.cls-1{fill:#1259a1;}</style></defs><title>conversation</title><path class="cls-1" d="M12.71,32.79A7.81,7.81,0,0,0,8.3,18.47,7.81,7.81,0,0,0,3.9,32.79,5.34,5.34,0,0,0,0,37.91v9.32A.77.77,0,0,0,.78,48H15.83a.77.77,0,0,0,.78-.77V37.91A5.35,5.35,0,0,0,12.71,32.79Zm-2.62,2.4-.94-1.07H11Zm-3-1.07L9,36.24,7.2,37.53l-.84-3.41Zm5.72.34.29.14-.27,2.81-1.59-1.17ZM2,26.3A6.34,6.34,0,1,1,8.3,32.59,6.32,6.32,0,0,1,2,26.3ZM1.55,37.91a3.8,3.8,0,0,1,3.22-3.74L6,39a.79.79,0,0,0,.5.54.75.75,0,0,0,.26,0,.77.77,0,0,0,.46-.15l2.13-1.57v8.57H5.39V38.83a.78.78,0,0,0-1.56,0v7.63H1.55Zm13.5,8.55H10.87V37.89L13,39.46a.8.8,0,0,0,.47.15.85.85,0,0,0,.31-.06.76.76,0,0,0,.46-.63L14.52,36a3.73,3.73,0,0,1,.53,1.93v8.55Z" transform="translate(0 0)"/><path class="cls-1" d="M12.6,40.07a.78.78,0,0,0-1.46.09.78.78,0,0,0,.32.85.8.8,0,0,0,.89,0,.77.77,0,0,0,.25-.91Z" transform="translate(0 0)"/><path class="cls-1" d="M8,24.87a.8.8,0,0,0-.72-.48.78.78,0,0,0-.72.48.76.76,0,0,0,.21.87.78.78,0,0,0,.92.07A.77.77,0,0,0,8,24.87C8,24.82,8,24.91,8,24.87Z" transform="translate(0 0)"/><path class="cls-1" d="M11.67,25.45a.78.78,0,0,0,.73.48.79.79,0,0,0,.74-.58.78.78,0,0,0-1.21-.81.75.75,0,0,0-.26.91C11.69,25.5,11.65,25.41,11.67,25.45Z" transform="translate(0 0)"/><path class="cls-1" d="M31.69,18a.79.79,0,0,0,.42.12.69.69,0,0,0,.37-.1.75.75,0,0,0,.4-.67V15.54h.79a2.41,2.41,0,0,0,2.42-2.39v-8a2.41,2.41,0,0,0-2.42-2.39h-8V2.39A2.4,2.4,0,0,0,23.22,0H9A2.41,2.41,0,0,0,6.56,2.39v8A2.41,2.41,0,0,0,9,12.83h.79v1.79a.76.76,0,0,0,.41.67.69.69,0,0,0,.37.1.79.79,0,0,0,.42-.12l3.86-2.44H17v.32a2.4,2.4,0,0,0,2.41,2.39h8.4Zm-17.1-6.69a.75.75,0,0,0-.41.12l-2.86,1.81V12.06a.77.77,0,0,0-.78-.77H9a.85.85,0,0,1-.85-.85v-8A.85.85,0,0,1,9,1.54H23.22a.86.86,0,0,1,.86.85v.32H19.43a2.42,2.42,0,0,0-2.28,1.6H11.23a.77.77,0,1,0,0,1.54H17V7.14H11.23a.77.77,0,1,0,0,1.54H17v2.61Zm4,1.86v-8a.85.85,0,0,1,.86-.85H33.67a.85.85,0,0,1,.86.85v8.05a.85.85,0,0,1-.86.85H32.11a.77.77,0,0,0-.78.77v1.16l-2.86-1.81a.75.75,0,0,0-.41-.12H19.43A.85.85,0,0,1,18.57,13.15Z" transform="translate(0 0)"/><path class="cls-1" d="M21.68,8.56h9.74a.77.77,0,1,0,0-1.54H21.68a.77.77,0,1,0,0,1.54Z" transform="translate(0 0)"/><path class="cls-1" d="M32.2,10.62a.77.77,0,0,0-.78-.77H21.68a.77.77,0,0,0,0,1.54h9.74A.78.78,0,0,0,32.2,10.62Z" transform="translate(0 0)"/><path class="cls-1" d="M38.1,32.79a7.9,7.9,0,1,0-8.81,0,5.35,5.35,0,0,0-3.9,5.12v9.32a.77.77,0,0,0,.78.77h15a.77.77,0,0,0,.78-.77V37.91A5.34,5.34,0,0,0,38.1,32.79Zm-1.64,1.33a3.27,3.27,0,0,1-5.53,0Zm-9.1-7.82a6.34,6.34,0,1,1,6.34,6.29A6.32,6.32,0,0,1,27.36,26.3ZM27,37.91a3.78,3.78,0,0,1,2.37-3.5,4.85,4.85,0,0,0,8.76,0,3.78,3.78,0,0,1,2.37,3.5v2.73H37.73V38.83a.78.78,0,0,0-.78-.77.77.77,0,0,0-.77.77v7.63H27V37.91Zm10.78,8.55V42.18h2.72v4.28Z" transform="translate(0 0)"/><path class="cls-1" d="M34,25.45a.81.81,0,0,0,.84.47.77.77,0,0,0,.31-1.4.8.8,0,0,0-1,.09.82.82,0,0,0-.17.84Z" transform="translate(0 0)"/><path class="cls-1" d="M30.38,25a1,1,0,0,0-.12-.28.77.77,0,1,0-.26,1.1.8.8,0,0,0,.38-.82Z" transform="translate(0 0)"/><path class="cls-1" d="M33.85,27.8a.63.63,0,0,0-.88,0,1.1,1.1,0,0,1-1.55,0,.63.63,0,0,0-.88,0,.62.62,0,0,0,0,.87,2.35,2.35,0,0,0,3.31,0A.62.62,0,0,0,33.85,27.8Z" transform="translate(0 0)"/></svg>