<svg id="Layer_1" data-name="Layer 1" xmlns="http://www.w3.org/2000/svg" viewBox="0 0 80 76"><defs><style>.cls-1{fill:#1259a1;}</style></defs><title>friendly-service</title><path class="cls-1" d="M63.79,6.8h0a1.28,1.28,0,1,0,1.29,1.28A1.27,1.27,0,0,0,63.78,6.8Z" transform="translate(0 0)"/><path class="cls-1" d="M45.46,58.9,33.33,53.84a1.44,1.44,0,0,1-.89-1.33V49.93l2.27-1.26a6.7,6.7,0,0,0,3.42-5.26v0h1.18a4,4,0,0,0,4-4V36.9a20,20,0,0,0,1.36-7.44,19.7,19.7,0,0,0-5.81-14,20.11,20.11,0,0,0-4.81-3.57C34,7.58,29.67,4.08,24.37,4.08s-9.61,3.5-9.67,7.81a20.36,20.36,0,0,0-4.82,3.57,19.74,19.74,0,0,0-5.8,14A20,20,0,0,0,5.44,36.9v2.46a4,4,0,0,0,4,4h1.18v0A6.7,6.7,0,0,0,14,48.67l2.27,1.26v2.58a1.44,1.44,0,0,1-.89,1.33L3.29,58.9A5.33,5.33,0,0,0,0,63.84V72a4,4,0,0,0,4,4H44.76a4,4,0,0,0,4-4V63.84A5.33,5.33,0,0,0,45.46,58.9Zm-4.7-19.54a1.44,1.44,0,0,1-1.44,1.45h-1l.51-5.62h.44a1.44,1.44,0,0,1,1.44,1.45ZM24.37,6.63c3.34,0,6.15,1.73,6.92,4.06a21,21,0,0,0-13.84,0C18.23,8.36,21,6.63,24.37,6.63ZM9.43,40.81A1.45,1.45,0,0,1,8,39.36V36.64a1.45,1.45,0,0,1,1.45-1.45h.44l.51,5.62Zm5.85,5.63a4.17,4.17,0,0,1-2.13-3.26l-1-10.68a41.37,41.37,0,0,0,8-.86c7-1.45,12.69-4.61,16.48-9.14a1.27,1.27,0,1,0-2-1.64c-8.29,9.89-23.64,9.08-23.85,9.07h-.2a1.26,1.26,0,0,0-1.15,1.38l.12,1.33H9.43a3.94,3.94,0,0,0-2.38.8,18.41,18.41,0,0,1-.43-4,17.18,17.18,0,0,1,5.07-12.2,17.73,17.73,0,0,1,12.68-5.19,17.73,17.73,0,0,1,12.69,5.19,17.17,17.17,0,0,1,5.06,12.2,19.12,19.12,0,0,1-.42,4,3.94,3.94,0,0,0-2.38-.8h-.21l.12-1.33a1.25,1.25,0,0,0-.37-1l-2.71-2.72a1.28,1.28,0,0,0-1.81,1.8l2.3,2.3-.91,10c-1,.92-4.34,3.22-11.36,3.22a1.28,1.28,0,0,0,0,2.55,23.15,23.15,0,0,0,10.38-2.1,4.13,4.13,0,0,1-1.28,1.1l-7.08,3.94a4.15,4.15,0,0,1-4,0ZM16.4,56.2a4,4,0,0,0,2.45-3.69V51.35l2.27,1.26a6.66,6.66,0,0,0,6.51,0l2.26-1.26v1.16a4,4,0,0,0,2.46,3.69l1.34.55a17.64,17.64,0,0,1-6.27,4.84,9.42,9.42,0,0,1-3.05.81,9.48,9.48,0,0,1-3.05-.81,17.71,17.71,0,0,1-6.26-4.84ZM8.15,73.45H4A1.45,1.45,0,0,1,2.55,72V63.84a2.77,2.77,0,0,1,.18-1L7.1,66.33a2.81,2.81,0,0,1,1.05,2.2Zm29.9-4.93v4.93H10.7V68.52a5.32,5.32,0,0,0-2-4.18l-4-3.24,8-3.32c4.2,5.2,8.44,6.63,10.5,7v4.31a1.28,1.28,0,1,0,2.55,0V64.8c2.06-.39,6.3-1.82,10.5-7l8,3.32-4.06,3.24A5.34,5.34,0,0,0,38.05,68.52ZM46.2,72a1.45,1.45,0,0,1-1.44,1.45H40.59V68.53a2.82,2.82,0,0,1,1.06-2.2L46,62.84a2.78,2.78,0,0,1,.19,1V72Z" transform="translate(0 0)"/><path class="cls-1" d="M22.8,36.09A4,4,0,0,0,19.06,34a4.07,4.07,0,0,0-3.74,2.09,1.27,1.27,0,1,0,2.3,1.1,1.63,1.63,0,0,1,1.44-.64,1.65,1.65,0,0,1,1.45.64,1.27,1.27,0,0,0,1.15.73,1.38,1.38,0,0,0,.55-.13A1.27,1.27,0,0,0,22.8,36.09Z" transform="translate(0 0)"/><path class="cls-1" d="M33.42,36.09A4,4,0,0,0,29.68,34a4.07,4.07,0,0,0-3.74,2.09,1.27,1.27,0,1,0,2.3,1.1,2,2,0,0,1,2.89,0,1.27,1.27,0,0,0,1.15.73,1.38,1.38,0,0,0,.55-.13A1.27,1.27,0,0,0,33.42,36.09Z" transform="translate(0 0)"/><path class="cls-1" d="M63.78,0A16.22,16.22,0,0,0,53.05,28.39,21.19,21.19,0,0,1,49.36,33a1.27,1.27,0,0,0,.83,2.24h.1a21.27,21.27,0,0,0,9.24-3.28,16.42,16.42,0,0,0,4.25.56A16.24,16.24,0,0,0,63.78,0Zm0,29.92a13.86,13.86,0,0,1-4.1-.62,1.26,1.26,0,0,0-1.13.18,16.63,16.63,0,0,1-4.77,2.36,25,25,0,0,0,2-3.13,1.27,1.27,0,0,0-.34-1.62,13.66,13.66,0,1,1,8.31,2.83Z" transform="translate(0 0)"/><path class="cls-1" d="M65.14,23.12h-.09V14.79h.09a1.28,1.28,0,0,0,0-2.55H62.42a1.28,1.28,0,0,0,0,2.55h.09v8.33h-.09a1.28,1.28,0,0,0,0,2.55h2.72a1.28,1.28,0,0,0,0-2.55Z" transform="translate(0 0)"/></svg>